<?xml version="1.0" encoding="UTF-8"?>
<svg id="Layer_1" xmlns="http://www.w3.org/2000/svg" version="1.1" viewBox="-5 0 710 201.61">
  <defs>
    <style>
      .st0 {
        fill: #ffffff;
      }
    </style>
  </defs>
  <g id="PCCW1">
    <g>
      <path class="st0"
        d="M218.1,132.93l12.06-12.94c-6.16,1.96-14.96,4.3-22.5,4.3-19.25,0-24.69-10.4-24.62-19.13.06-13.71,11.73-27.27,30.16-27.27,11.66,0,17.38,4.39,20.31,7.53l7.72-16.67c-10.47-6.79-26.44-6.82-29.39-6.82-36.46,0-55.32,21.11-55.32,44.32,0,18.75,14.03,33.41,39.98,33.41,6.95,0,14.67-2.12,17.81-2.72l3.8-4.02h0Z" />
      <path class="st0"
        d="M146.93,132.93l12.1-12.94c-6.21,1.96-14.97,4.3-22.55,4.3-19.19,0-24.66-10.4-24.62-19.13.07-13.71,11.75-27.27,30.17-27.27,11.66,0,17.38,4.39,20.33,7.53l7.7-16.67c-10.46-6.79-26.38-6.82-29.35-6.82-36.46,0-55.36,21.11-55.36,44.32,0,18.75,14.02,33.41,39.96,33.41,6.96,0,14.68-2.12,17.83-2.72l3.78-4.02h0Z" />
      <path class="st0"
        d="M61.89,90.14c-.79,2.86-4.37,8.06-11.7,8.7-3.5.54-7.97.27-10.93-.69l5.26-17.5h8.92c4.68,0,10.29,3.16,8.46,9.48M61.24,64.2H22.78L0,137.69h26.89l7.53-23.83c4.33.61,9.63,1.2,15.02,1.2,7.34,0,17.99-.6,27.14-6.64,7.3-4.87,12.24-13.52,12.57-21.89.5-14.78-14.84-22.33-27.91-22.33" />
      <polygon class="st0"
        points="317.99 137.63 289.93 137.63 289.18 102.68 270.78 137.63 239.45 137.63 241.27 64.15 266.68 64.15 263.75 106.7 289.45 64.15 308.7 64.15 311.54 106.93 330.95 64.15 358.32 64.15 317.99 137.63" />
      <path class="st0"
        d="M407.88,94.64c4.76.08,9.31.1,13.62.1,7.38,0,13.16-.03,17.34-.1-.47,4.92-.96,11.88-1.45,20.89s-.79,15.82-.88,20.42c-4,.75-7.31,1.32-9.93,1.66-2.63.34-5.78.65-9.47.92-3.69.27-6.97.4-9.85.4-4.73,0-9.37-.39-13.93-1.17-4.55-.8-8.63-2.08-12.22-3.83-3.6-1.76-6.6-4.15-9-7.16-2.41-3.02-4.25-6.59-5.55-10.73-1.31-4.12-1.95-8.4-1.95-12.81,0-7.29,1.76-14.06,5.27-20.3,3.5-6.26,8.55-11.2,15.15-14.84,6.58-3.64,15.09-5.48,25.52-5.48,7.62,0,16.05.95,25.3,2.85,0,5.24.25,11.09.75,17.52-2.5-.87-4.53-1.52-6.08-1.98-1.56-.46-3.36-.87-5.44-1.25-2.07-.38-4.05-.66-5.9-.84-1.87-.19-3.52-.27-4.98-.27-3.83,0-7.45.56-10.86,1.69s-6.35,2.87-8.8,5.21c-2.46,2.35-4.29,5.15-5.51,8.4-1.23,3.26-1.83,6.71-1.83,10.32s.69,6.97,2.09,9.85c1.39,2.88,3.59,5.08,6.63,6.58,3.03,1.5,6.41,2.25,10.14,2.25,3.1,0,6.49-.45,10.18-1.34l.61-11.68c-2.28-.1-3.61-.15-4.03-.15l-5.55.05.36-6.59c.03-.71.08-1.73.15-3.08.08-1.34.11-3.17.11-5.49" />
      <path class="st0"
        d="M448.55,137.59l.98-11.58,2.13-40.25.6-21.65c4.85.07,8.49.1,10.92.1,3.17,0,6.68-.03,10.51-.1l-1.25,16.53-2.02,40.7-.44,16.26c-3.71-.03-7.09-.05-10.09-.05l-11.33.05h0Z" />
      <path class="st0"
        d="M512.38,97.04c-2.21,0-4.18.58-5.9,1.76-1.73,1.19-3.04,2.93-3.93,5.2-.88,2.28-1.31,4.76-1.31,7.45,0,3.96.94,6.96,2.85,9.06,1.91,2.11,4.29,3.15,7.16,3.15,2.17,0,4.13-.6,5.86-1.79,1.73-1.21,3.03-2.98,3.9-5.33.9-2.34,1.34-4.87,1.34-7.56,0-2.23-.35-4.23-1.04-6.03s-1.83-3.23-3.39-4.3c-1.57-1.08-3.41-1.61-5.53-1.61M512.75,81.16c4.3,0,8.44.69,12.42,2.05,3.98,1.38,7.35,3.33,10.1,5.89,2.74,2.57,4.75,5.57,6.07,9,1.3,3.43,1.95,7.11,1.95,11.06s-.59,7.49-1.75,10.96c-1.16,3.46-3.13,6.72-5.91,9.74-2.78,3.04-6.31,5.32-10.62,6.82-4.29,1.5-8.83,2.25-13.62,2.25-4.41,0-8.65-.65-12.7-1.98-4.07-1.33-7.48-3.26-10.2-5.81-2.73-2.56-4.78-5.6-6.15-9.15-1.38-3.57-2.06-7.29-2.06-11.2s.67-7.64,2.01-11.2c1.33-3.55,3.45-6.75,6.35-9.59,2.91-2.83,6.49-5.01,10.76-6.53,4.27-1.53,8.72-2.3,13.35-2.3" />
      <path class="st0"
        d="M572.84,97.49c-.3,6.05-.44,9.73-.44,11.09,0,3.36.29,6.03.86,8,.58,1.97,1.67,3.55,3.28,4.72,1.62,1.18,3.43,1.78,5.45,1.78s3.91-.6,5.47-1.79c1.56-1.2,2.75-2.93,3.57-5.22.83-2.3,1.23-4.7,1.23-7.23,0-3.78-.98-6.82-2.94-9.11-1.97-2.3-4.79-3.45-8.47-3.45-2.3,0-4.97.4-8.01,1.21M550.81,137.59c.98-11.31,1.84-24.47,2.58-39.51.72-15.03,1.1-26.36,1.1-33.97,4.03.07,7.81.1,11.33.1s6.81-.03,10.12-.1c-.76,5.58-1.3,11.72-1.64,18.41,3.16-.54,5.59-.89,7.29-1.07,1.69-.19,3.38-.28,5.05-.28,5.35,0,9.92.87,13.72,2.62,3.81,1.74,6.9,4.67,9.28,8.8s3.57,9.17,3.57,15.12-1.12,11.45-3.39,16.45c-2.26,5.01-5.29,8.73-9.07,11.15-3.79,2.42-8.21,3.63-13.23,3.63-1.88,0-3.67-.2-5.38-.58-1.7-.4-3.24-.99-4.63-1.76-1.39-.77-2.56-1.58-3.5-2.44-.94-.87-2.01-2.04-3.23-3.5l-.2,6.95c-3.73-.08-6.86-.11-9.36-.11-2.06,0-5.53.03-10.41.11" />
      <path class="st0"
        d="M625.94,98.22c.65-3.53,1.08-5.97,1.24-7.32.18-1.34.46-3.43.84-6.29,9.98-2.3,18.6-3.46,25.84-3.46,4.13,0,7.92.48,11.35,1.44,3.43.95,6.11,2.49,8.04,4.6,1.93,2.12,2.89,5.16,2.89,9.11,0,2.02-.28,6.54-.86,13.59-.56,7.03-.99,16.26-1.3,27.69-3.42-.08-6.82-.12-10.2-.12s-6.77.04-10.46.12c.54-3.97,1.14-12.16,1.79-24.55-1.33.66-2.37,1.12-3.12,1.42-.75.28-2.08.72-3.96,1.3-1.89.59-3.37,1.08-4.44,1.47-1.06.4-2,.91-2.78,1.52s-1.35,1.26-1.68,1.9c-.32.65-.49,1.38-.49,2.17,0,1.23.46,2.28,1.39,3.15.93.88,2.39,1.3,4.42,1.3.72,0,1.49-.05,2.31-.19s1.95-.47,3.4-1c-1.01,2.78-2.2,6.81-3.59,12.12-2.98.5-5.82.74-8.48.74-4.3,0-7.88-.61-10.74-1.85-2.86-1.23-5.07-3.24-6.61-6s-2.31-5.52-2.31-8.28c0-1.69.29-3.34.87-4.96.57-1.62,1.47-3.19,2.69-4.74,1.23-1.54,2.65-2.86,4.29-3.94,1.65-1.11,3.89-2.14,6.74-3.11,2.84-.97,6.44-1.87,10.81-2.73,1.82-.36,3.49-.76,5.01-1.17,1.52-.42,2.6-.77,3.25-1.08.64-.31,1.17-.66,1.57-1.08.4-.41.69-.85.86-1.28.18-.46.27-.94.27-1.44,0-1.38-.56-2.43-1.68-3.18-1.13-.73-2.76-1.1-4.93-1.1-6.01,0-13.44,1.73-22.27,5.23" />
      <path class="st0"
        d="M685.54,137.59l.98-11.58,2.13-40.25.61-21.65c4.83.07,8.47.1,10.92.1,3.17,0,6.68-.03,10.5-.1l-1.26,16.53-2.01,40.7-.44,16.26c-3.73-.03-7.1-.05-10.08-.05l-11.35.05h0Z" />
    </g>
  </g>
</svg>